name C:\Users\u0101727\Documents\MyRepositories\upper-imu-dc\Results\main_tracking\Case_40\kinematics.mot
datacolumns 10
datarows 37
range 0.50000000 0.86000000
endheader 
time	clav_prot	clav_elev	scapula_abduction	scapula_elevation	scapula_upward_rot	scapula_winging	plane_elv	shoulder_elv	axial_rot	
          0.50000000	        -23.88683825	         -6.27531399	        -15.12084462	         -4.92582859	         10.68533526	          6.64235495	        -28.92106687	         13.34386190	         46.07713353	
          0.51000000	        -23.64155115	         -6.27441252	        -15.18180329	         -4.99541469	         10.66288742	          6.68245757	        -28.38764895	         13.37773333	         45.34132767	
          0.52000000	        -23.67121173	         -6.34010774	        -15.21746716	         -5.04830850	         10.66337114	          6.70733676	        -27.84579402	         13.44635317	         44.58806649	
          0.53000000	        -23.65251994	         -6.39804349	        -15.16631448	         -5.09490537	         10.67398093	          6.72630067	        -27.28771608	         13.54296697	         43.80405313	
          0.54000000	        -23.59904904	         -6.45088861	        -15.05399661	         -5.13667598	         10.68935826	          6.74171804	        -26.70985353	         13.65335104	         42.98626553	
          0.55000000	        -23.55699538	         -6.49590806	        -14.96406218	         -5.17262078	         10.70297124	          6.75478819	        -26.10636209	         13.76680324	         42.14764455	
          0.56000000	        -23.40545600	         -6.54314716	        -14.69442917	         -5.19917798	         10.70050368	          6.77011821	        -25.45803315	         13.88128410	         41.31565468	
          0.57000000	        -23.39038153	         -6.57353837	        -14.66596110	         -5.21974724	         10.69282561	          6.78316264	        -24.79777829	         13.98221172	         40.54476442	
          0.58000000	        -23.49812377	         -6.58894221	        -14.84556911	         -5.23938369	         10.69658315	          6.79059774	        -24.15254439	         14.05459315	         39.86071515	
          0.59000000	        -23.38736198	         -6.61708697	        -14.65602263	         -5.25091298	         10.68381923	          6.80187141	        -23.47827296	         14.11593580	         39.29590735	
          0.60000000	        -23.55930298	         -6.61938357	        -14.94439274	         -5.26652656	         10.69559053	          6.80373260	        -22.84347036	         14.13879754	         38.87539173	
          0.61000000	        -23.49566965	         -6.63893352	        -14.81291324	         -5.28636880	         10.72775526	          6.80233283	        -22.23355192	         14.12967002	         38.58815644	
          0.62000000	        -23.49165340	         -6.65513459	        -14.79092581	         -5.30423974	         10.74846258	          6.80357948	        -21.58668280	         14.11526200	         38.40410028	
          0.63000000	        -23.47896386	         -6.67723343	        -14.76955196	         -5.31800257	         10.73881498	          6.81410253	        -20.86084254	         14.11705045	         38.27831467	
          0.64000000	        -23.43670156	         -6.70994362	        -14.69944081	         -5.33602354	         10.72119100	          6.82993638	        -20.07337765	         14.12869598	         38.15542528	
          0.65000000	        -23.47799285	         -6.74473393	        -14.76727363	         -5.36333747	         10.71285990	          6.84631859	        -19.23547845	         14.14713441	         37.98886480	
          0.66000000	        -23.59274590	         -6.78127631	        -14.94402022	         -5.40473314	         10.73491890	          6.85769476	        -18.36063218	         14.16446899	         37.73053710	
          0.67000000	        -23.61729875	         -6.83197073	        -14.95449880	         -5.45548460	         10.77184644	          6.86926532	        -17.41338916	         14.19846732	         37.34608502	
          0.68000000	        -23.62507125	         -6.88940607	        -14.93187021	         -5.51178298	         10.81389080	          6.88208839	        -16.37330322	         14.26029448	         36.80971241	
          0.69000000	        -23.63119830	         -6.94956082	        -14.90361051	         -5.57115658	         10.85996695	          6.89516019	        -15.23818733	         14.35324796	         36.10245791	
          0.70000000	        -23.63803842	         -7.00933969	        -14.87383246	         -5.63164072	         10.91117448	          6.90705780	        -14.01246563	         14.47813668	         35.21000952	
          0.71000000	        -23.64561610	         -7.06647115	        -14.84239415	         -5.69178930	         10.96871338	          6.91659505	        -12.70397449	         14.63505359	         34.12366385	
          0.72000000	        -23.65385723	         -7.11958743	        -14.80895247	         -5.75076580	         11.03347003	          6.92300232	        -11.32312890	         14.82358503	         32.84296436	
          0.73000000	        -23.66261307	         -7.16816002	        -14.77302073	         -5.80829636	         11.10602101	          6.92591028	         -9.88202136	         15.04258155	         31.37802991	
          0.74000000	        -23.67149011	         -7.21223707	        -14.73369695	         -5.86447509	         11.18670536	          6.92523199	         -8.39295968	         15.28991564	         29.75006235	
          0.75000000	        -23.67972402	         -7.25207183	        -14.68949204	         -5.91948646	         11.27569302	          6.92099831	         -6.86670224	         15.56239068	         27.98960173	
          0.76000000	        -23.68619866	         -7.28777641	        -14.63842976	         -5.97334178	         11.37299884	          6.91321418	         -5.31090240	         15.85590033	         26.13313025	
          0.77000000	        -23.68973999	         -7.31912923	        -14.57862631	         -6.02573261	         11.47842215	          6.90179661	         -3.72928340	         16.16586289	         24.21908442	
          0.78000000	        -23.68964031	         -7.34560304	        -14.50922717	         -6.07606563	         11.59146923	          6.88661037	         -2.12187021	         16.48782610	         22.28426675	
          0.79000000	        -23.68616899	         -7.36659751	        -14.43123135	         -6.12367732	         11.71135911	          6.86757063	         -0.48628386	         16.81805032	         20.36137112	
          0.80000000	        -23.68075891	         -7.38180014	        -14.34765458	         -6.16816441	         11.83716870	          6.84476516	          1.18023128	         17.15390090	         18.47796673	
          0.81000000	        -23.67567299	         -7.39156818	        -14.26274648	         -6.20972022	         11.96806590	          6.81855887	          2.87863870	         17.49400062	         16.65676228	
          0.82000000	        -23.67324254	         -7.39720143	        -14.18052281	         -6.24934560	         12.10349344	          6.78965626	          4.60646496	         17.83821197	         14.91649092	
          0.83000000	        -23.67496972	         -7.40097103	        -14.10321141	         -6.28881668	         12.24318130	          6.75909603	          6.35715176	         18.18754807	         13.27263922	
          0.84000000	        -23.68090224	         -7.40580552	        -14.03034726	         -6.33035400	         12.38696604	          6.72815014	          8.12049845	         18.54405660	         11.73755654	
          0.85000000	        -23.68940100	         -7.41462977	        -13.95867503	         -6.37602231	         12.53450931	          6.69810832	          9.88387677	         18.91064896	         10.31998922	
          0.86000000	        -23.69784157	         -7.42941808	        -13.88368067	         -6.42698607	         12.68508017	          6.66994425	         11.63380770	         19.29078367	          9.02439900	
